<svg xmlns="http://www.w3.org/2000/svg" width="43.962" height="43.962" viewBox="0 0 43.962 43.962">
  <g id="组_976" data-name="组 976" transform="matrix(-0.105, 0.995, -0.995, -0.105, 37.69, 63.852)">
    <g  id="组_975" data-name="组 975">
      <path id="路径_1975" data-name="路径 1975" d="M-49.091,29.091a9.059,9.059,0,0,1,2.664-6.427A9.059,9.059,0,0,1-40,20a9.058,9.058,0,0,0-6.427-2.664A9.029,9.029,0,0,0-52.855,20a9.062,9.062,0,0,0-2.663,6.427,9.041,9.041,0,0,0,2.282,6.028c.127.136.254.272.381.4s.264.254.4.381a18.06,18.06,0,0,0,11.819,4.928,9.122,9.122,0,0,1-5.791-2.646A9.059,9.059,0,0,1-49.091,29.091Z" fill="#e43"/>
      <path id="路径_1976" data-name="路径 1976" d="M-40,32.855a9.029,9.029,0,0,1-2.664-6.428A9.058,9.058,0,0,1-40,20a9.059,9.059,0,0,0-6.427,2.664,9.059,9.059,0,0,0-2.664,6.427,9.059,9.059,0,0,0,2.664,6.427,9.122,9.122,0,0,0,5.791,2.646h.081c.182.009.364.018.555.018s.373-.009.555-.018h.081a18.06,18.06,0,0,0,11.819-4.928,9.041,9.041,0,0,1-6.028,2.282A9.062,9.062,0,0,1-40,32.855Z" fill="#ace520"/>
      <path id="路径_1977" data-name="路径 1977" d="M-30.909,29.091a9.059,9.059,0,0,1-6.427-2.664A9.059,9.059,0,0,1-40,20a9.058,9.058,0,0,0-2.664,6.427A9.029,9.029,0,0,0-40,32.855a9.062,9.062,0,0,0,6.427,2.663,9.041,9.041,0,0,0,6.028-2.282c.136-.127.272-.254.4-.381s.254-.264.381-.4a18.051,18.051,0,0,0,4.928-11.9,9.066,9.066,0,0,1-2.646,5.872A9.059,9.059,0,0,1-30.909,29.091Z" fill="#8e35ed"/>
      <path id="路径_1978" data-name="路径 1978" d="M-21.836,19.445A18.039,18.039,0,0,0-26.773,7.536a9.056,9.056,0,0,1,2.291,6.037A9.062,9.062,0,0,1-27.145,20a9.029,9.029,0,0,1-6.428,2.664A9.058,9.058,0,0,1-40,20a9.059,9.059,0,0,0,2.664,6.427,9.059,9.059,0,0,0,6.427,2.664,9.059,9.059,0,0,0,6.427-2.664,9.066,9.066,0,0,0,2.646-5.872c.009-.182.018-.364.018-.555S-21.827,19.627-21.836,19.445Z" fill="#fb0"/>
      <path id="路径_1979" data-name="路径 1979" d="M-49.091,10.909a9.059,9.059,0,0,1,6.427,2.664A9.059,9.059,0,0,1-40,20a9.058,9.058,0,0,0,2.664-6.427A9.029,9.029,0,0,0-40,7.145a9.062,9.062,0,0,0-6.427-2.663,9.056,9.056,0,0,0-6.037,2.291c-.136.118-.263.245-.391.372s-.254.255-.372.391a18.039,18.039,0,0,0-4.937,11.909,9.066,9.066,0,0,1,2.646-5.872A9.059,9.059,0,0,1-49.091,10.909Z" fill="#ff9d00"/>
      <path id="路径_1980" data-name="路径 1980" d="M-52.855,20a9.029,9.029,0,0,1,6.428-2.664A9.058,9.058,0,0,1-40,20a9.059,9.059,0,0,0-2.664-6.427,9.059,9.059,0,0,0-6.427-2.664,9.059,9.059,0,0,0-6.427,2.664,9.066,9.066,0,0,0-2.646,5.872c-.009.182-.018.364-.018.555s.009.373.018.555a18.051,18.051,0,0,0,4.928,11.9,9.041,9.041,0,0,1-2.282-6.028A9.062,9.062,0,0,1-52.855,20Z" fill="#48e"/>
      <path id="路径_1981" data-name="路径 1981" d="M-30.909,10.909a9.059,9.059,0,0,1-2.664,6.427A9.059,9.059,0,0,1-40,20a9.058,9.058,0,0,0,6.427,2.664A9.029,9.029,0,0,0-27.145,20a9.062,9.062,0,0,0,2.663-6.427,9.056,9.056,0,0,0-2.291-6.037c-.118-.136-.245-.263-.372-.391s-.255-.254-.391-.372A18.039,18.039,0,0,0-39.445,1.836a9.066,9.066,0,0,1,5.872,2.646A9.059,9.059,0,0,1-30.909,10.909Z" fill="#e43"/>
      <path id="路径_1982" data-name="路径 1982" d="M-40,7.145a9.029,9.029,0,0,1,2.664,6.428A9.058,9.058,0,0,1-40,20a9.059,9.059,0,0,0,6.427-2.664,9.059,9.059,0,0,0,2.664-6.427,9.059,9.059,0,0,0-2.664-6.427,9.066,9.066,0,0,0-5.872-2.646c-.182-.009-.364-.018-.555-.018s-.373.009-.555.018A18.039,18.039,0,0,0-52.464,6.773a9.056,9.056,0,0,1,6.037-2.291A9.062,9.062,0,0,1-40,7.145Z" fill="#ffec00"/>
    </g>
    <path id="路径_1983" data-name="路径 1983" d="M-40,1.818A18.182,18.182,0,0,1-21.818,20,18.182,18.182,0,0,1-40,38.182,18.182,18.182,0,0,1-58.182,20,18.182,18.182,0,0,1-40,1.818M-40,0A20.023,20.023,0,0,0-60,20,20.023,20.023,0,0,0-40,40,20.023,20.023,0,0,0-20,20,20.023,20.023,0,0,0-40,0Z" fill="#fff"/>
  </g>
</svg>
